<svg version="1.2" xmlns="http://www.w3.org/2000/svg" viewBox="0 0 1152 576" width="200" height="100"><style>.a{fill:#0f0d0e}.b{fill:#fefefe}</style><path class="a" d="m0 576h1152v576h-1152z"/><path class="b" d="m354.6 850h-60.6c-1.5 0-2.8 1.2-2.8 2.8v29.6c0 1.6 1.3 2.8 2.8 2.8h23.6v36.8c0 0-5.3 1.8-19.9 1.8-17.3 0-41.5-6.3-41.5-59.4 0-53.2 25.2-60.2 48.8-60.2 20.4 0 29.3 3.6 34.9 5.4 1.7 0.5 3.3-1.2 3.3-2.8l6.8-28.6c0-0.7-0.2-1.6-1.1-2.2-2.3-1.6-16.1-9.4-51.2-9.4-40.4 0-81.9 17.2-81.9 99.8 0 82.7 47.5 95 87.5 95 33.1 0 53.2-14.1 53.2-14.1 0.8-0.5 0.9-1.7 0.9-2.2v-92.3c0-1.6-1.3-2.8-2.8-2.8z"/><path class="b" d="m666.5 776.5c0-1.6-1.2-2.8-2.8-2.8h-34.1c-1.5 0-2.8 1.2-2.8 2.8 0 0 0 65.9 0 65.9h-53.1v-65.9c0-1.6-1.3-2.8-2.8-2.8h-34.1c-1.6 0-2.8 1.2-2.8 2.8v178.4c0 1.5 1.2 2.8 2.8 2.8h34.1c1.5 0 2.8-1.3 2.8-2.8v-76.3h53.1c0 0-0.1 76.2-0.1 76.3 0 1.5 1.3 2.8 2.9 2.8h34.1c1.6 0 2.8-1.3 2.8-2.8z"/><path class="b" d="m418.9 799.9c0-12.3-9.9-22.2-22-22.2-12.1 0-22 9.9-22 22.2 0 12.3 9.9 22.2 22 22.2 12.1 0 22-9.9 22-22.2z"/><path class="b" d="m416.4 917.2c0-4.5 0-82.3 0-82.3 0-1.6-1.2-2.8-2.8-2.8h-34c-1.5 0-2.9 1.6-2.9 3.1 0 0 0 99.1 0 118 0 3.4 2.2 4.5 4.9 4.5 0 0 14.6 0 30.7 0 3.3 0 4.1-1.7 4.1-4.6 0-6.3 0-31.1 0-35.9z"/><path class="b" d="m796.1 832.3h-33.9c-1.5 0-2.8 1.3-2.8 2.9v87.4c0 0-8.6 6.3-20.8 6.3-12.2 0-15.4-5.5-15.4-17.5 0-11.9 0-76.2 0-76.2 0-1.6-1.3-2.9-2.8-2.9h-34.3c-1.6 0-2.9 1.3-2.9 2.9 0 0 0 46.6 0 82 0 35.5 19.8 44.2 47 44.2 22.3 0 40.3-12.4 40.3-12.4 0 0 0.9 6.5 1.3 7.3 0.3 0.8 1.4 1.5 2.4 1.5h21.9c1.5 0 2.8-1.3 2.8-2.9v-119.7c0-1.6-1.3-2.9-2.8-2.9z"/><path fill-rule="evenodd" class="b" d="m936.2 890.5c0 55-17.8 70.7-48.9 70.7-26.5 0-40.4-13.2-40.4-13.2 0 0-0.9 7.2-1.5 8.2-0.6 1-1.4 1.5-2.4 1.5 0 0-23.8 0-23.8 0-1.5 0-2.8-1.3-2.8-2.8v-178.4c0-1.6 1.3-2.8 2.8-2.8h34.2c1.6 0 2.8 1.2 2.8 2.8v60.4c0 0 13.1-8.6 32.3-8.6 19.2 0 47.7 7.2 47.7 62.2zm-39.3 2.1c0-29-11.8-32.7-23.9-31.6-9.7 0.8-17.5 5.6-17.5 5.6v56.5c0 0 7.9 5.4 19.7 5.7 16.4 0.5 21.7-5.5 21.7-36.2z"/><path class="b" d="m514.4 832h-25.6c0 0 0-33.7 0-33.7 0-1.3-0.7-2-2.1-2h-34.9c-1.3 0-2.1 0.6-2.1 1.9v34.9c0 0-17.4 4.3-18.6 4.6-1.2 0.3-2 1.4-2 2.7v22c0 1.5 1.2 2.8 2.8 2.8h17.8c0 0 0 22.9 0 52.8 0 39.2 27.5 43 46.1 43 8.5 0 18.6-2.7 20.3-3.3 1-0.4 1.6-1.4 1.6-2.6v-24.1c0-1.6-1.3-2.9-2.8-2.9-1.5 0-5.3 0.7-9.3 0.7-12.5 0-16.8-5.9-16.8-13.4 0-7.6 0-50.2 0-50.2h25.6c1.6 0 2.8-1.3 2.8-2.8v-27.5c0-1.6-1.2-2.9-2.8-2.9z"/><path class="a" d="m354.6 274h-60.6c-1.5 0-2.8 1.2-2.8 2.8v29.6c0 1.6 1.3 2.8 2.8 2.8h23.6v36.8c0 0-5.3 1.8-19.9 1.8-17.3 0-41.5-6.3-41.5-59.4 0-53.2 25.2-60.2 48.8-60.2 20.4 0 29.3 3.6 34.9 5.4 1.7 0.5 3.3-1.2 3.3-2.8l6.8-28.6c0-0.7-0.2-1.6-1.1-2.2-2.3-1.6-16.1-9.4-51.2-9.4-40.4 0-81.9 17.2-81.9 99.8 0 82.7 47.5 95 87.5 95 33.1 0 53.2-14.1 53.2-14.1 0.8-0.5 0.9-1.7 0.9-2.2v-92.3c0-1.6-1.3-2.8-2.8-2.8z"/><path class="a" d="m666.5 200.5c0-1.6-1.2-2.8-2.8-2.8h-34.1c-1.5 0-2.8 1.2-2.8 2.8 0 0 0 65.9 0 65.9h-53.1v-65.9c0-1.6-1.3-2.8-2.8-2.8h-34.1c-1.6 0-2.8 1.2-2.8 2.8v178.4c0 1.5 1.2 2.8 2.8 2.8h34.1c1.5 0 2.8-1.3 2.8-2.8v-76.3h53.1c0 0-0.1 76.2-0.1 76.3 0 1.5 1.3 2.8 2.9 2.8h34.1c1.6 0 2.8-1.3 2.8-2.8z"/><path class="a" d="m418.9 223.9c0-12.3-9.9-22.2-22-22.2-12.1 0-22 9.9-22 22.2 0 12.3 9.9 22.2 22 22.2 12.1 0 22-9.9 22-22.2z"/><path class="a" d="m416.4 341.2c0-4.5 0-82.3 0-82.3 0-1.6-1.2-2.8-2.8-2.8h-34c-1.5 0-2.9 1.6-2.9 3.1 0 0 0 99.1 0 118 0 3.4 2.2 4.5 4.9 4.5 0 0 14.6 0 30.7 0 3.3 0 4.1-1.7 4.1-4.6 0-6.3 0-31.1 0-35.9z"/><path class="a" d="m796.1 256.3h-33.9c-1.5 0-2.8 1.3-2.8 2.9v87.4c0 0-8.6 6.3-20.8 6.3-12.2 0-15.4-5.5-15.4-17.5 0-11.9 0-76.2 0-76.2 0-1.6-1.3-2.9-2.8-2.9h-34.3c-1.6 0-2.9 1.3-2.9 2.9 0 0 0 46.6 0 82 0 35.5 19.8 44.2 47 44.2 22.3 0 40.3-12.4 40.3-12.4 0 0 0.9 6.5 1.3 7.3 0.3 0.8 1.4 1.5 2.4 1.5h21.9c1.5 0 2.8-1.3 2.8-2.9v-119.7c0-1.6-1.3-2.9-2.8-2.9z"/><path fill-rule="evenodd" class="a" d="m936.2 314.5c0 55-17.8 70.7-48.9 70.7-26.5 0-40.4-13.2-40.4-13.2 0 0-0.9 7.2-1.5 8.2-0.6 1-1.4 1.5-2.4 1.5 0 0-23.8 0-23.8 0-1.5 0-2.8-1.3-2.8-2.8v-178.4c0-1.6 1.3-2.8 2.8-2.8h34.2c1.6 0 2.8 1.2 2.8 2.8v60.4c0 0 13.1-8.6 32.3-8.6 19.2 0 47.7 7.2 47.7 62.2zm-39.3 2.1c0-29-11.8-32.7-23.9-31.6-9.7 0.8-17.5 5.6-17.5 5.6v56.5c0 0 7.9 5.4 19.7 5.7 16.4 0.5 21.7-5.5 21.7-36.2z"/><path class="a" d="m514.4 256h-25.6c0 0 0-33.7 0-33.7 0-1.3-0.7-2-2.1-2h-34.9c-1.3 0-2.1 0.6-2.1 1.9v34.9c0 0-17.4 4.3-18.6 4.6-1.2 0.3-2 1.4-2 2.7v22c0 1.5 1.2 2.8 2.8 2.8h17.8c0 0 0 22.9 0 52.8 0 39.2 27.5 43 46.1 43 8.5 0 18.6-2.7 20.3-3.3 1-0.4 1.6-1.4 1.6-2.6v-24.1c0-1.6-1.3-2.9-2.8-2.9-1.5 0-5.3 0.7-9.3 0.7-12.5 0-16.8-5.9-16.8-13.4 0-7.6 0-50.2 0-50.2h25.6c1.6 0 2.8-1.3 2.8-2.8v-27.5c0-1.6-1.2-2.9-2.8-2.9z"/></svg>